<?xml version="1.0" standalone="no"?>
<!DOCTYPE svg PUBLIC "-//W3C//DTD SVG 20010904//EN"
 "http://www.w3.org/TR/2001/REC-SVG-20010904/DTD/svg10.dtd">
<svg version="1.0" xmlns="http://www.w3.org/2000/svg"
 width="256.000000pt" height="256.000000pt" viewBox="0 0 256.000000 256.000000"
 preserveAspectRatio="xMidYMid meet">
<metadata>
Created by potrace 1.11, written by Peter Selinger 2001-2013
</metadata>
<g transform="translate(0.000000,256.000000) scale(0.100000,-0.100000)"
fill="#000000" stroke="none">
<path d="M0 1280 l0 -1280 1280 0 1280 0 0 1280 0 1280 -1280 0 -1280 0 0
-1280z m1388 843 l-3 -148 -362 -3 -363 -2 0 -120 0 -120 359 0 c327 0 361 -2
379 -17 11 -10 127 -202 258 -428 l239 -410 3 423 2 422 180 0 180 0 0 -715 0
-715 -182 2 -182 3 -246 420 -245 420 -3 -423 -2 -422 -180 0 -180 0 0 275 0
275 -370 0 -370 0 0 715 0 715 545 0 546 0 -3 -147z"/>
<path d="M660 1285 l0 -145 190 0 190 0 0 145 0 145 -190 0 -190 0 0 -145z"/>
</g>
</svg>
